<svg width="32" height="32" viewBox="0 0 32 32" fill="none" xmlns="http://www.w3.org/2000/svg">
<path fill-rule="evenodd" clip-rule="evenodd" d="M9.95251 9.40035C9.95251 8.66397 10.5495 8.06702 11.2858 8.06702H22.5993C22.5995 8.06702 22.5996 8.06702 22.5998 8.06702H22.6192C23.3556 8.06702 23.9525 8.66397 23.9525 9.40035V20.7337C23.9525 21.4701 23.3556 22.067 22.6192 22.067C21.8828 22.067 21.2858 21.4701 21.2858 20.7337V12.5997L10.343 23.5425C9.82234 24.0632 8.97812 24.0632 8.45742 23.5425C7.93672 23.0218 7.93672 22.1776 8.45742 21.6569L19.3806 10.7337H11.2858C10.5495 10.7337 9.95251 10.1367 9.95251 9.40035Z" fill="white"/>
</svg>
