<svg width="100" height="100" viewBox="0 0 100 100" fill="none" xmlns="http://www.w3.org/2000/svg">
<circle cx="50" cy="50" r="50" fill="#1679AB"/>
<g clip-path="url(#clip0_10_914)">
<path d="M45 30H55C55.7956 30 56.5587 30.3161 57.1213 30.8787C57.6839 31.4413 58 32.2044 58 33C58 34.8565 57.2625 36.637 55.9497 37.9497C54.637 39.2625 52.8565 40 51 40H49C47.1435 40 45.363 39.2625 44.0503 37.9497C42.7375 36.637 42 34.8565 42 33C42 32.2044 42.3161 31.4413 42.8787 30.8787C43.4413 30.3161 44.2044 30 45 30Z" stroke="white" stroke-width="3" stroke-linecap="round" stroke-linejoin="round"/>
<path d="M34 58V56C34 51.7565 35.6857 47.6869 38.6863 44.6863C41.6869 41.6857 45.7565 40 50 40C54.2435 40 58.3131 41.6857 61.3137 44.6863C64.3143 47.6869 66 51.7565 66 56V58C66 60.1217 65.1571 62.1566 63.6569 63.6569C62.1566 65.1571 60.1217 66 58 66H42C39.8783 66 37.8434 65.1571 36.3431 63.6569C34.8429 62.1566 34 60.1217 34 58Z" stroke="white" stroke-width="3" stroke-linecap="round" stroke-linejoin="round"/>
</g>
<defs>
<clipPath id="clip0_10_914">
<rect width="48" height="48" fill="white" transform="translate(26 24)"/>
</clipPath>
</defs>
</svg>
