<svg width="101" height="100" viewBox="0 0 101 100" fill="none" xmlns="http://www.w3.org/2000/svg">
<circle cx="50.5" cy="50" r="50" fill="#1679AB"/>
<g clip-path="url(#clip0_10_917)">
<path d="M65.5001 51.144L50.5001 66L35.5001 51.144C34.5107 50.1812 33.7314 49.024 33.2112 47.7453C32.691 46.4665 32.4412 45.0939 32.4776 43.7139C32.5139 42.3338 32.8356 40.9763 33.4224 39.7267C34.0092 38.4771 34.8484 37.3625 35.8871 36.4531C36.9258 35.5438 38.1415 34.8594 39.4577 34.4429C40.7739 34.0265 42.1621 33.8872 43.5349 34.0336C44.9076 34.18 46.2351 34.6091 47.4339 35.2938C48.6326 35.9785 49.6766 36.904 50.5001 38.012C51.3272 36.912 52.3724 35.9946 53.5703 35.3172C54.7682 34.6398 56.0931 34.2169 57.462 34.075C58.8309 33.9332 60.2143 34.0754 61.5257 34.4928C62.837 34.9102 64.0482 35.5937 65.0832 36.5007C66.1183 37.4077 66.955 38.5186 67.541 39.7638C68.1269 41.009 68.4496 42.3618 68.4887 43.7374C68.5279 45.1131 68.2826 46.482 67.7684 47.7585C67.2541 49.035 66.4819 50.1916 65.5001 51.156" stroke="white" stroke-width="3" stroke-linecap="round" stroke-linejoin="round"/>
<path d="M50.5002 38L43.9142 44.586C43.5392 44.9611 43.3286 45.4697 43.3286 46C43.3286 46.5303 43.5392 47.0389 43.9142 47.414L45.0002 48.5C46.3802 49.88 48.6202 49.88 50.0002 48.5L52.0002 46.5C53.1937 45.3065 54.8124 44.6361 56.5002 44.6361C58.188 44.6361 59.8067 45.3065 61.0002 46.5L65.5002 51" stroke="white" stroke-width="3" stroke-linecap="round" stroke-linejoin="round"/>
<path d="M51.5 57L55.5 61" stroke="white" stroke-width="3" stroke-linecap="round" stroke-linejoin="round"/>
<path d="M56.5 52L60.5 56" stroke="white" stroke-width="3" stroke-linecap="round" stroke-linejoin="round"/>
</g>
<defs>
<clipPath id="clip0_10_917">
<rect width="48" height="48" fill="white" transform="translate(26.5 26)"/>
</clipPath>
</defs>
</svg>
